<?xml version="1.0" encoding="UTF-8" standalone="no"?>
<!-- Created with Inkscape (http://www.inkscape.org/) -->

<svg
   width="512"
   height="512"
   viewBox="0 0 512 512"
   version="1.1"
   id="svg1"
   inkscape:version="1.4 (86a8ad7, 2024-10-11)"
   sodipodi:docname="logov3.svg"
   xmlns:inkscape="http://www.inkscape.org/namespaces/inkscape"
   xmlns:sodipodi="http://sodipodi.sourceforge.net/DTD/sodipodi-0.dtd"
   xmlns:xlink="http://www.w3.org/1999/xlink"
   xmlns="http://www.w3.org/2000/svg"
   xmlns:svg="http://www.w3.org/2000/svg">
  <sodipodi:namedview
     id="namedview1"
     pagecolor="#ffffff"
     bordercolor="#000000"
     borderopacity="0.25"
     inkscape:showpageshadow="2"
     inkscape:pageopacity="0.0"
     inkscape:pagecheckerboard="0"
     inkscape:deskcolor="#d1d1d1"
     inkscape:document-units="px"
     inkscape:zoom="1.0675655"
     inkscape:cx="176.56996"
     inkscape:cy="269.30432"
     inkscape:window-width="1920"
     inkscape:window-height="991"
     inkscape:window-x="-9"
     inkscape:window-y="-9"
     inkscape:window-maximized="1"
     inkscape:current-layer="svg1"
     showguides="true"
     showgrid="false">
    <inkscape:grid
       id="grid107"
       units="px"
       originx="0"
       originy="0"
       spacingx="1"
       spacingy="1"
       empcolor="#0099e5"
       empopacity="0.30196078"
       color="#0099e5"
       opacity="0.14901961"
       empspacing="5"
       enabled="true"
       visible="false" />
  </sodipodi:namedview>
  <defs
     id="defs1">
    <linearGradient
       id="linearGradient115"
       inkscape:collect="always">
      <stop
         style="stop-color:#f56e0f;stop-opacity:1;"
         offset="0"
         id="stop115" />
      <stop
         style="stop-color:#ffffff;stop-opacity:1;"
         offset="0.00000007"
         id="stop117" />
    </linearGradient>
    <linearGradient
       inkscape:collect="always"
       xlink:href="#linearGradient115"
       id="linearGradient116"
       x1="246.89238"
       y1="296.88495"
       x2="278.1889"
       y2="283.57797"
       gradientUnits="userSpaceOnUse"
       gradientTransform="matrix(1.7465228,0,0,1.7465228,-195.39058,-203.37061)" />
  </defs>
  <path
     id="path104-8"
     style="display:inline;fill:#000000;fill-opacity:1;stroke:#000000;stroke-width:0;stroke-linecap:round;stroke-linejoin:round;stroke-dasharray:none;stroke-opacity:1;paint-order:stroke markers fill"
     d="m 411.74666,245.53694 c -10.10534,0.39041 -20.2212,0.064 -30.33122,0.18386 -94.92673,-0.008 -189.85397,-0.0199 -284.780397,0.031 -13.63108,0.8156 -25.799801,9.80084 -31.235397,21.3963 -4.678507,9.32654 -8.549833,18.90942 -12.942457,28.3158 -7.540066,16.93931 -15.383254,33.76757 -22.460901,50.88318 -4.516738,13.6095 -2.539688,28.73046 4.284075,41.35529 10.722731,23.78706 21.122983,47.70914 32.345942,71.29176 6.201538,10.91166 18.576758,18.99211 31.934348,19.0727 26.093527,-0.0115 52.190787,0.15543 78.281747,-0.1266 8.42228,-0.91747 16.47432,-5.02908 21.63381,-11.39648 39.4449,-0.0958 78.88996,-0.0605 118.33495,-0.0444 5.4917,7.08954 14.61379,11.81117 24.03656,11.50173 13.71904,0.26336 27.44261,0.0601 41.16365,0.13821 11.75568,-0.0306 23.52095,0.10283 35.2697,-0.22854 13.55815,-1.38471 25.40258,-10.61638 30.56669,-22.33033 3.88114,-7.99236 7.28203,-16.18135 11.0174,-24.23399 8.0749,-18.11246 16.43666,-36.11989 24.04235,-54.41117 4.37453,-13.41172 2.13133,-28.18039 -4.33698,-40.6548 -10.63629,-23.62392 -21.06026,-47.33618 -32.0495,-70.81604 -5.6464,-10.24973 -16.47762,-18.33474 -28.89005,-19.51741 -1.94949,-0.25519 -3.91343,-0.449 -5.88432,-0.4101 z m -156.28888,98.78429 c 36.07373,0.006 72.14747,0.008 108.22118,0.0139 2.46064,5.10921 4.93661,10.2119 7.3443,15.34347 -2.46745,5.10881 -4.93486,10.21762 -7.40231,15.32642 -72.29486,-0.0392 -144.5897,-0.0643 -216.8846,-0.075 -2.4645,-5.11946 -4.94702,-10.23131 -7.34789,-15.3776 2.47861,-5.07313 4.87862,-10.17894 7.3588,-15.25139 36.23683,0.007 72.4737,0.014 108.71052,0.0204 z" />
  <path
     id="path51-9"
     style="display:inline;fill:#000000;fill-opacity:1;stroke:#050505;stroke-width:0;stroke-linecap:round;stroke-linejoin:round;stroke-dasharray:none;stroke-opacity:1;paint-order:stroke markers fill"
     d="m 254.12083,28.239399 c -5.97103,0.0764 -12.09117,0.551533 -17.91099,1.344562 -3.0668,0.425794 -5.96159,0.903018 -9.01468,1.513378 -3.60133,0.712986 -7.19242,1.569945 -10.65976,2.519908 -7.6619,2.096938 -15.2893,4.863749 -22.44991,8.07901 -20.86485,9.373681 -39.66259,23.440811 -54.19856,41.132658 -11.42046,13.744678 -20.29603,29.576695 -26.19631,46.439225 -0.62262,1.80913 -1.30722,3.85897 -1.88824,5.7835 -0.92222,3.04281 -1.74139,6.04168 -2.46001,9.08137 -1.39341,5.84533 -2.45005,11.91988 -3.1143,17.96445 -0.0984,0.98279 -0.23175,2.20354 -0.31253,3.17028 -0.22877,2.61294 -0.39558,5.4119 -0.47442,8.02241 -0.24625,5.86745 -0.15667,11.83792 1.4435,17.53101 0.20044,0.7418 0.54517,1.804 0.86902,2.65588 3.19765,8.36535 10.01488,15.31655 18.43364,18.44531 4.92775,1.87504 10.27801,2.09763 15.49269,2.15072 4.9031,-0.0313 9.80616,-0.18393 14.70879,-0.0567 9.59387,-0.0309 19.19045,0.16085 28.7817,-0.1443 2.26996,-0.10183 4.74491,-0.13733 7.07844,-0.37823 11.66825,-2.04798 22.07745,-10.93302 25.26219,-22.44246 0.98216,-3.21785 1.40124,-6.57597 1.43755,-9.93443 0.0296,-1.36205 0.0214,-3.00837 0.0331,-4.48291 -0.0182,-4.46875 0.16736,-9.01995 1.67513,-13.27356 3.57994,-10.92579 12.7929,-19.827 23.87996,-22.92479 12.34082,-3.69416 26.57714,-1.27442 36.53124,7.06099 8.04252,6.6973 12.69082,17.18507 12.39115,27.63358 0.0101,5.73873 -0.0492,11.63602 1.95134,17.10343 3.312,9.75971 11.47712,17.96673 21.56641,20.51859 7.9478,2.08037 16.22248,1.09124 24.33087,1.25736 11.52559,-0.007 23.05445,0.17442 34.57681,-0.18478 1.70049,-0.0947 3.62995,-0.051 5.39987,-0.2844 11.63803,-1.93882 22.09416,-10.66325 25.41937,-22.08298 2.41507,-8.28948 1.65168,-17.0222 1.03194,-25.50543 -0.33474,-5.01601 -1.04945,-10.00121 -1.95604,-14.94384 -0.39329,-2.1111 -0.88194,-4.44585 -1.3974,-6.62517 -1.54753,-6.63418 -3.67428,-13.46034 -6.12586,-19.7894 -8.99966,-23.27914 -23.92974,-44.553981 -43.19684,-60.617679 -4.23117,-3.540273 -8.62792,-6.885102 -13.21403,-9.9538 -7.50034,-5.035354 -15.75417,-9.543921 -24.0524,-13.138319 -11.48281,-4.996767 -23.68039,-8.616008 -36.11272,-10.660795 -2.57213,-0.428322 -5.47995,-0.822708 -8.0635,-1.104503 -3.81131,-0.415279 -7.64661,-0.685037 -11.37257,-0.800441 -2.70692,-0.08124 -5.41565,-0.08619 -8.12358,-0.0787 z" />
  <path
     id="rect1-7-1"
     style="display:inline;fill:#000000;fill-opacity:1;stroke:#000000;stroke-width:0;stroke-linecap:round;stroke-linejoin:round;stroke-dasharray:none;stroke-opacity:1;paint-order:stroke markers fill"
     d="m 311.72874,179.13836 c -7.64453,0.23723 -14.72162,5.83477 -16.70028,13.22367 -1.17841,4.12886 -0.52758,8.46903 -0.69673,12.69719 0.0272,17.107 -0.0544,34.21664 0.0406,51.32199 0.37739,7.64917 6.12908,14.6189 13.56303,16.45196 4.08737,1.03815 8.34313,0.4353 12.50878,0.59696 30.3752,-0.0204 60.75202,0.0408 91.1262,-0.0307 7.65138,-0.29393 14.68036,-5.97093 16.59413,-13.38155 1.11453,-4.14165 0.48224,-8.47315 0.64938,-12.70371 -0.0205,-16.9852 0.0409,-33.97198 -0.0307,-50.95619 -0.29643,-7.72237 -6.08031,-14.79811 -13.5799,-16.64654 -4.08741,-1.0318 -8.34074,-0.43315 -12.50538,-0.59355 -30.323,0.014 -60.64676,-0.0272 -90.96928,0.0204 z" />
  <path
     id="rect1-7-1-4"
     style="display:inline;fill:#000000;fill-opacity:1;stroke:#000000;stroke-width:0;stroke-linecap:round;stroke-linejoin:round;stroke-dasharray:none;stroke-opacity:1;paint-order:stroke markers fill"
     d="m 101.4535,179.13836 c -7.707927,0.23266 -14.826327,5.92665 -16.751017,13.39179 -1.11453,4.14163 -0.48225,8.47314 -0.64937,12.70371 0.0204,16.9852 -0.0409,33.97198 0.0307,50.95619 0.29501,7.71195 6.06441,14.77929 13.54965,16.63802 4.095587,1.04478 8.360947,0.44038 12.535617,0.60206 30.37523,-0.0204 60.75201,0.0408 91.12621,-0.0307 7.71197,-0.295 14.77929,-6.06442 16.63803,-13.54964 1.04479,-4.09558 0.44038,-8.36096 0.60205,-12.53562 -0.0204,-16.9852 0.0408,-33.97198 -0.0307,-50.95619 -0.29502,-7.71196 -6.06442,-14.77929 -13.54965,-16.63802 -4.09558,-1.04479 -8.36096,-0.44039 -12.53562,-0.60207 -30.32187,0.014 -60.64448,-0.0272 -90.96589,0.0204 z" />
  <path
     id="path104"
     style="fill:url(#linearGradient116);fill-opacity:1;stroke:#000000;stroke-width:0;stroke-linecap:round;stroke-linejoin:round;stroke-dasharray:none;stroke-opacity:1;paint-order:stroke markers fill"
     d="m 415.2862,269.99073 c -106.11424,-0.006 -212.22891,-0.0377 -318.342857,-0.0253 -4.27086,-0.31448 -7.89597,2.81271 -9.95876,6.28035 -2.49848,4.47025 -4.38757,9.2532 -6.63587,13.85214 -9.352197,20.15599 -18.814525,40.25767 -28.037717,60.47129 -2.722213,6.97016 -2.333686,15.11977 1.310138,21.68957 10.942857,23.56066 21.795898,47.16526 32.917229,70.64075 2.03968,3.91461 5.97476,7.37663 10.63098,7.10617 25.478897,0.0267 50.961757,0.008 76.442167,0.0184 1.21354,-0.69625 2.9311,-0.8401 3.38844,-2.36523 1.28634,-4.17851 4.38683,-8.50653 9.04424,-9.03527 40.02106,-0.14687 80.0425,-0.0246 120.06373,-0.0751 8.2886,0.0301 16.58759,-0.0719 24.86966,0.0745 4.33165,0.74142 7.56256,4.61002 8.55177,8.74756 0.99905,0.9769 1.5941,2.61821 3.19893,2.59898 6.55266,0.16993 13.14024,0.0258 19.70634,0.0745 17.93198,0.0256 35.8687,-0.0441 53.79771,0.0412 2.83853,0.0612 5.7736,-0.72926 7.90399,-2.70536 3.84168,-3.36003 5.24043,-8.46679 7.50696,-12.86105 10.18407,-21.91241 20.47374,-43.77855 30.47666,-65.77265 2.86527,-7.28497 1.53751,-15.62647 -2.11351,-22.38403 -10.642,-22.8718 -21.23005,-45.76881 -31.93755,-68.6095 -1.90259,-3.77393 -5.25124,-7.54489 -9.75866,-7.72432 -1.53254,0.0325 0.41374,0.0506 -1.33824,-0.1474 -0.56593,-0.2402 -1.11572,0.0308 -1.68578,0.11098 z m -283.41577,48.23422 c 82.76906,0.006 165.53891,0.0294 248.30762,0.008 3.14292,-0.22519 5.34966,2.67333 6.39044,5.30618 5.06476,10.25403 10.27801,20.34372 15.16818,30.61862 1.25896,3.40969 0.46162,7.24162 -1.4346,10.25195 -5.07589,10.10478 -9.96495,20.31576 -15.25688,30.30436 -1.37217,2.05283 -3.93827,2.8999 -6.317,2.58792 -82.57862,-0.0124 -165.15886,0.008 -247.73648,-0.0399 -3.0586,-0.25589 -4.86871,-3.17688 -5.93468,-5.75019 -5.03084,-10.13245 -10.21812,-20.19574 -15.05866,-30.41733 -1.28921,-3.6785 0.0286,-7.62952 1.93947,-10.83094 4.88497,-9.74452 9.65356,-19.55058 14.67167,-29.22568 1.15334,-1.69905 3.1301,-3.05055 5.26092,-2.81442 z" />
  <rect
     style="fill:#f56e0f;fill-opacity:1;stroke:#000000;stroke-width:0;stroke-linecap:round;stroke-linejoin:round;stroke-dasharray:none;stroke-opacity:1;paint-order:stroke markers fill"
     id="rect1"
     width="90.819199"
     height="50"
     x="105.79099"
     y="198.99855"
     rx="8.2930813"
     ry="8.2930813" />
  <rect
     style="fill:#ffffff;fill-opacity:1;stroke:#000000;stroke-width:0;stroke-linecap:round;stroke-linejoin:round;stroke-dasharray:none;stroke-opacity:1;paint-order:stroke markers fill"
     id="rect1-7"
     width="92.56572"
     height="50"
     x="315.29004"
     y="198.99811"
     rx="8.4525595"
     ry="8.4525595" />
  <text
     xml:space="preserve"
     style="font-style:normal;font-variant:normal;font-weight:normal;font-stretch:normal;font-size:74.5184px;font-family:Revamped;-inkscape-font-specification:'Revamped, Normal';font-variant-ligatures:normal;font-variant-caps:normal;font-variant-numeric:normal;font-variant-east-asian:normal;text-align:start;letter-spacing:0px;word-spacing:0px;writing-mode:lr-tb;direction:ltr;text-anchor:start;display:none;fill:#f56e0f;fill-opacity:1;stroke:#ffeea3;stroke-width:0;stroke-linecap:round;stroke-linejoin:round"
     x="47.509136"
     y="549.74384"
     id="text1-2"><tspan
       sodipodi:role="line"
       id="tspan1-8"
       x="-23.417767"
       y="-0.93671066"
       style="font-size:74.5184px;fill:#f56e0f;fill-opacity:1;stroke-width:0">fitforge</tspan></text>
  <text
     xml:space="preserve"
     style="font-style:normal;font-variant:normal;font-weight:normal;font-stretch:normal;font-size:74.5184px;font-family:Revamped;-inkscape-font-specification:'Revamped, Normal';font-variant-ligatures:normal;font-variant-caps:normal;font-variant-numeric:normal;font-variant-east-asian:normal;text-align:start;letter-spacing:0px;word-spacing:0px;writing-mode:lr-tb;direction:ltr;text-anchor:start;display:none;fill:#000000;fill-opacity:1;stroke:#ffeea3;stroke-width:0;stroke-linecap:round;stroke-linejoin:round"
     x="41.490696"
     y="546.13861"
     id="text1"><tspan
       sodipodi:role="line"
       id="tspan1"
       x="-23.417767"
       y="-0.93671066"
       style="font-size:74.5184px;stroke-width:0">fitforge</tspan></text>
  <path
     id="path51"
     style="fill:#f56e0f;stroke:#000000;stroke-width:0;stroke-linecap:round;stroke-linejoin:round;stroke-dasharray:none;stroke-opacity:1;paint-order:stroke markers fill"
     d="m 253.21023,54.961997 c -5.92787,0.120483 -11.84752,0.591891 -17.71989,1.409765 -0.6399,0.101898 -1.66986,0.252686 -2.45932,0.373331 -10.76444,1.683819 -21.58103,4.682006 -31.54369,8.665361 -7.21249,2.900033 -14.19025,6.38388 -20.82048,10.443958 -0.39198,0.254891 -1.16948,0.736788 -1.70902,1.07857 -17.65857,11.183807 -32.6308,26.784388 -42.39207,45.319708 -5.87571,11.09226 -9.78599,23.23063 -11.33227,35.69402 -0.26557,2.00139 -0.46711,3.97987 -0.61101,5.91127 -0.089,1.31344 -0.16685,2.54844 -0.204,3.77623 -0.0593,2.3355 -0.11865,4.92218 0.0966,7.34218 0.61114,2.79369 2.51383,5.58067 5.45418,6.21414 3.72826,1.11084 7.65151,0.332 11.46836,0.56481 14.44556,-0.0288 28.89547,0.0666 43.33826,-0.0572 2.73852,-0.47688 5.8047,-1.65776 7.03259,-4.35348 1.50774,-3.30467 0.6856,-7.00113 0.81957,-10.49584 0.0397,-8.17307 2.19231,-16.29719 6.12422,-23.45659 6.25384,-11.48184 16.75738,-20.37887 28.76626,-25.3956 17.35415,-7.35988 37.60345,-7.57376 55.12369,-0.63174 11.51693,4.59714 21.91385,12.48358 28.52106,23.07497 5.54539,8.69565 8.31861,19.10414 7.86193,29.40635 -0.0623,2.82929 -0.17563,5.89399 1.47159,8.35222 1.53314,2.55977 4.66693,3.44651 7.47827,3.55476 3.18488,0.10664 6.37099,-0.10406 9.55673,0.001 14.38355,-0.0261 28.77125,0.0648 43.15215,-0.0563 2.75145,-0.46721 5.79664,-1.68852 7.04766,-4.37026 1.42977,-3.26274 0.7276,-6.8752 0.77334,-10.31228 C 387.61789,143.406 378.22957,120.3933 363.07071,102.35736 346.74053,82.810639 324.29368,68.765198 300.0154,61.352424 c -11.91426,-3.64147 -24.3027,-5.690168 -36.74342,-6.260716 -0.80294,-0.03157 -1.83306,-0.07721 -2.68033,-0.09492 -2.45966,-0.07378 -4.9211,-0.07484 -7.38139,-0.0355 z" />
  <g
     inkscape:groupmode="layer"
     id="layer3"
     inkscape:label="Layer 1" />
  <g
     inkscape:groupmode="layer"
     id="g64"
     inkscape:label="Layer 1"
     style="display:inline"
     transform="matrix(0.77600519,0,0,0.48912776,28.080477,158.71882)" />
</svg>
