<?xml version="1.0" encoding="UTF-8" standalone="no"?>
<!-- Created with Inkscape (http://www.inkscape.org/) -->

<svg
   width="512"
   height="512"
   viewBox="0 0 512 512"
   version="1.1"
   id="svg1"
   inkscape:version="1.4 (86a8ad7, 2024-10-11)"
   sodipodi:docname="logov1.svg"
   xmlns:inkscape="http://www.inkscape.org/namespaces/inkscape"
   xmlns:sodipodi="http://sodipodi.sourceforge.net/DTD/sodipodi-0.dtd"
   xmlns:xlink="http://www.w3.org/1999/xlink"
   xmlns="http://www.w3.org/2000/svg"
   xmlns:svg="http://www.w3.org/2000/svg">
  <sodipodi:namedview
     id="namedview1"
     pagecolor="#ffffff"
     bordercolor="#000000"
     borderopacity="0.25"
     inkscape:showpageshadow="2"
     inkscape:pageopacity="0.0"
     inkscape:pagecheckerboard="0"
     inkscape:deskcolor="#d1d1d1"
     inkscape:document-units="px"
     inkscape:zoom="0.7548828"
     inkscape:cx="-29.143597"
     inkscape:cy="476.23287"
     inkscape:window-width="1920"
     inkscape:window-height="991"
     inkscape:window-x="-9"
     inkscape:window-y="-9"
     inkscape:window-maximized="1"
     inkscape:current-layer="svg1"
     showguides="true"
     showgrid="false">
    <inkscape:grid
       id="grid107"
       units="px"
       originx="0"
       originy="0"
       spacingx="1"
       spacingy="1"
       empcolor="#0099e5"
       empopacity="0.30196078"
       color="#0099e5"
       opacity="0.14901961"
       empspacing="5"
       enabled="true"
       visible="false" />
  </sodipodi:namedview>
  <defs
     id="defs1">
    <linearGradient
       id="linearGradient115"
       inkscape:collect="always">
      <stop
         style="stop-color:#f56e0f;stop-opacity:1;"
         offset="0"
         id="stop115" />
      <stop
         style="stop-color:#ffffff;stop-opacity:1;"
         offset="0"
         id="stop117" />
    </linearGradient>
    <linearGradient
       inkscape:collect="always"
       xlink:href="#linearGradient115"
       id="linearGradient116"
       x1="240.76585"
       y1="290.44244"
       x2="260.30533"
       y2="281.83185"
       gradientUnits="userSpaceOnUse"
       gradientTransform="matrix(1.5171372,0,0,1.5171372,-136.69006,-164.01493)" />
  </defs>
  <path
     id="path104-8"
     style="display:inline;fill:#000000;fill-opacity:1;stroke:#000000;stroke-width:0;stroke-linecap:round;stroke-linejoin:round;stroke-dasharray:none;stroke-opacity:1;paint-order:stroke markers fill"
     d="m 390.70669,225.93379 c -8.77812,0.33913 -17.56538,0.0556 -26.34757,0.15971 -82.45919,-0.007 -164.91883,-0.0173 -247.37776,0.027 -11.8408,0.70848 -22.411298,8.51361 -27.132991,18.58614 -4.06404,8.10161 -7.426911,16.42589 -11.242615,24.59684 -6.549764,14.71454 -13.36284,29.33259 -19.51092,44.20027 -3.923516,11.82205 -2.206129,24.95704 3.721412,35.92375 9.314423,20.6629 18.348721,41.44309 28.097674,61.9284 5.387037,9.47854 16.13691,16.49772 27.74014,16.56772 22.66644,-0.01 45.33613,0.13502 68.00034,-0.10997 7.31611,-0.79697 14.31061,-4.36856 18.79246,-9.89968 34.26427,-0.0832 68.52867,-0.0526 102.79301,-0.0386 4.77043,6.15841 12.69444,10.25991 20.87964,9.9911 11.9172,0.22878 23.83834,0.0522 35.75728,0.12006 10.2117,-0.0266 20.43174,0.0893 30.63743,-0.19852 11.77744,-1.20285 22.06624,-9.22204 26.55211,-19.3975 3.37139,-6.94266 6.32561,-14.05612 9.57038,-21.05114 7.01436,-15.73359 14.2779,-31.37595 20.88467,-47.26488 3.79998,-11.65025 1.8514,-24.47922 -3.76737,-35.31526 -9.23933,-20.5212 -18.29424,-41.11912 -27.84017,-61.51517 -4.90481,-8.90354 -14.31347,-15.92668 -25.09567,-16.95402 -1.69345,-0.22167 -3.39944,-0.39003 -5.11148,-0.35624 z m -135.76213,85.8101 c 31.33585,0.005 62.67172,0.007 94.00757,0.0121 2.13746,4.43817 4.28824,8.87068 6.3797,13.32828 -2.14337,4.43782 -4.28672,8.87565 -6.43009,13.31347 -62.79976,-0.0341 -125.59951,-0.0559 -188.3993,-0.0652 -2.14082,-4.44707 -4.29729,-8.88755 -6.38283,-13.35792 2.15307,-4.40684 4.23786,-8.84206 6.3923,-13.2483 31.47754,0.006 62.95512,0.0121 94.43265,0.0178 z" />
  <path
     id="path51-9"
     style="display:inline;fill:#000000;fill-opacity:1;stroke:#050505;stroke-width:0;stroke-linecap:round;stroke-linejoin:round;stroke-dasharray:none;stroke-opacity:1;paint-order:stroke markers fill"
     d="m 253.74404,35.175822 c -37.60034,0.508259 -74.77785,17.651326 -99.22028,46.354134 -19.73335,22.896224 -31.33533,52.743344 -31.92926,83.012594 -0.29298,7.29636 0.44474,14.98527 4.34626,21.33459 4.52533,7.83441 12.8179,13.46944 21.86501,14.32423 6.28004,0.8045 12.61719,0.11513 18.92217,0.35339 10.75308,-0.0589 21.52207,0.26972 32.26079,-0.4147 11.34923,-1.82399 21.51209,-10.62897 24.16358,-21.95357 1.81734,-6.10218 0.62765,-12.52463 1.42934,-18.74849 1.58558,-10.29366 9.35236,-19.28539 19.22259,-22.49633 10.73457,-3.67845 23.5119,-1.59632 31.9908,6.13634 5.80898,5.3034 9.22831,13.1242 9.15678,21.00212 0.0369,4.93203 -0.12198,9.9626 1.34326,14.73425 2.69666,9.48187 10.22205,17.62333 19.77227,20.34779 7.15551,2.1381 14.68645,1.26729 22.03449,1.38513 11.61877,-0.018 23.2503,0.22158 34.85838,-0.33375 11.44873,-1.64859 21.80889,-10.39324 24.57208,-21.76954 2.01805,-7.76941 1.08272,-15.86235 0.54234,-23.75575 -3.28698,-34.41625 -20.7737,-67.255654 -47.58748,-89.042212 -23.67679,-19.537852 -54.2267,-30.534473 -84.90868,-30.465707 -0.94485,-0.01514 -1.88953,-0.01214 -2.83444,-0.0048 z" />
  <path
     id="rect1-7-1"
     style="display:inline;fill:#000000;fill-opacity:1;stroke:#000000;stroke-width:0;stroke-linecap:round;stroke-linejoin:round;stroke-dasharray:none;stroke-opacity:1;paint-order:stroke markers fill"
     d="m 303.82497,168.2559 c -6.64051,0.20607 -12.7881,5.06844 -14.50689,11.48689 -1.02364,3.58658 -0.45829,7.35672 -0.60522,11.02956 0.0237,14.86019 -0.0472,29.72268 0.0353,44.58144 0.32783,6.64453 5.32409,12.69887 11.78168,14.29118 3.55054,0.9018 7.24736,0.37813 10.8659,0.51856 26.38577,-0.0178 52.77294,0.0354 79.15782,-0.0267 6.64646,-0.25532 12.75226,-5.18672 14.41468,-11.62404 0.96815,-3.59768 0.41891,-7.36029 0.56409,-11.03522 -0.0178,-14.75439 0.0355,-29.51015 -0.0267,-44.26368 -0.25749,-6.70813 -5.28173,-12.85455 -11.79633,-14.46021 -3.55058,-0.89628 -7.24528,-0.37626 -10.86295,-0.51559 -26.34041,0.0121 -52.6815,-0.0237 -79.0215,0.0178 z" />
  <path
     id="rect1-7-1-4"
     style="display:inline;fill:#000000;fill-opacity:1;stroke:#000000;stroke-width:0;stroke-linecap:round;stroke-linejoin:round;stroke-dasharray:none;stroke-opacity:1;paint-order:stroke markers fill"
     d="m 121.16697,168.2559 c -6.69558,0.2021 -12.87907,5.14825 -14.55097,11.63293 -0.96815,3.59768 -0.41891,7.36029 -0.56409,11.03522 0.0178,14.75439 -0.0355,29.51016 0.0267,44.26368 0.25626,6.69908 5.26792,12.8382 11.77006,14.45281 3.55767,0.90756 7.26283,0.38255 10.88921,0.52299 26.38578,-0.0178 52.77293,0.0354 79.15783,-0.0267 6.69909,-0.25625 12.8382,-5.26793 14.45281,-11.77005 0.90757,-3.55768 0.38254,-7.26285 0.52298,-10.88921 -0.0178,-14.75439 0.0354,-29.51015 -0.0267,-44.26368 -0.25627,-6.69908 -5.26793,-12.8382 -11.77006,-14.45281 -3.55767,-0.90757 -7.26284,-0.38255 -10.88921,-0.52299 -26.33944,0.0121 -52.67953,-0.0237 -79.01856,0.0178 z" />
  <path
     id="path104"
     style="fill:url(#linearGradient116);fill-opacity:1;stroke:#000000;stroke-width:0;stroke-linecap:round;stroke-linejoin:round;stroke-dasharray:none;stroke-opacity:1;paint-order:stroke markers fill"
     d="m 393.78135,247.17586 c -92.17735,-0.005 -184.35509,-0.0328 -276.53219,-0.022 -3.70993,-0.27318 -6.85892,2.4433 -8.65079,5.4555 -2.17033,3.88313 -3.81131,8.0379 -5.76432,12.03282 -8.123896,17.50873 -16.343456,34.97029 -24.355288,52.52908 -2.364681,6.05471 -2.027183,13.13396 1.138066,18.8409 9.505639,20.46624 18.933258,40.97064 28.593932,61.36289 1.77179,3.40048 5.19004,6.4078 9.23472,6.17286 22.13254,0.0232 44.26852,0.007 66.40237,0.016 1.05416,-0.6048 2.54613,-0.72976 2.94341,-2.05458 1.11739,-3.62971 3.81067,-7.3893 7.85638,-7.84859 34.76475,-0.12758 69.52984,-0.0213 104.29474,-0.0653 7.19999,0.0262 14.409,-0.0625 21.60332,0.0647 3.76274,0.64404 6.5693,4.00454 7.42859,7.59867 0.86784,0.84859 1.38474,2.27434 2.77879,2.25762 5.69204,0.14762 11.41442,0.0224 17.11813,0.0647 15.57683,0.0222 31.15776,-0.0383 46.732,0.0358 2.46573,0.0531 5.01531,-0.63349 6.8659,-2.35004 3.33712,-2.91874 4.55216,-7.35478 6.521,-11.17191 8.84651,-19.03446 17.78475,-38.02874 26.47391,-57.13416 2.48894,-6.32818 1.33557,-13.57412 -1.83593,-19.44415 -9.2443,-19.86785 -18.44173,-39.7576 -27.74292,-59.59843 -1.6527,-3.27827 -4.56155,-6.55396 -8.47697,-6.70982 -1.33126,0.0282 0.3594,0.0439 -1.16248,-0.12804 -0.4916,-0.20865 -0.96919,0.0268 -1.46437,0.0964 z m -246.19237,41.8992 c 71.8983,0.005 143.79728,0.0255 215.69527,0.007 2.73013,-0.19561 4.64705,2.32222 5.55113,4.60927 4.39956,8.90728 8.92811,17.67181 13.17601,26.59722 1.09361,2.96187 0.40099,6.29051 -1.24618,8.90548 -4.40923,8.77763 -8.65617,17.64751 -13.25306,26.32423 -1.19195,1.78321 -3.42102,2.51903 -5.48734,2.24802 -71.73287,-0.0108 -143.46714,0.007 -215.19914,-0.0346 -2.65689,-0.22227 -4.22926,-2.75962 -5.15523,-4.99496 -4.3701,-8.80167 -8.87608,-17.54326 -13.08087,-26.42237 -1.11989,-3.19537 0.0248,-6.62747 1.68474,-9.40841 4.24338,-8.46469 8.38567,-16.98284 12.74471,-25.38723 1.00187,-1.4759 2.719,-2.64989 4.56996,-2.44478 z" />
  <rect
     style="fill:#f56e0f;fill-opacity:1;stroke:#000000;stroke-width:0;stroke-linecap:round;stroke-linejoin:round;stroke-dasharray:none;stroke-opacity:1;paint-order:stroke markers fill"
     id="rect1"
     width="78.891136"
     height="45.514114"
     x="124.93476"
     y="185.50768"
     rx="8.2930813"
     ry="8.2930813" />
  <rect
     style="fill:#ffffff;fill-opacity:1;stroke:#000000;stroke-width:0;stroke-linecap:round;stroke-linejoin:round;stroke-dasharray:none;stroke-opacity:1;paint-order:stroke markers fill"
     id="rect1-7"
     width="80.408279"
     height="45.514114"
     x="306.91852"
     y="185.50729"
     rx="8.4525595"
     ry="8.4525595" />
  <path
     d="M 80.6875,458.71875 H 26 V 447 h 54.6875 z m 0,23.4375 H 53.34375 L 45.53125,470.4375 H 80.6875 Z M 26,462.625 h 15.625 v 39.0625 H 26 Z M 88.5,447 h 15.625 v 54.6875 H 88.5 Z m 78.125,11.71875 H 111.9375 V 447 h 54.6875 z m -35.15625,3.90625 h 15.625 v 39.0625 h -15.625 z m 96.75781,-3.90625 h -54.6875 V 447 h 54.6875 z m 0,23.4375 h -27.34375 l -7.8125,-11.71875 h 35.15625 z M 173.53906,462.625 h 15.625 v 39.0625 h -15.625 z m 105.46875,0 q 0,-3.90625 -3.90625,-3.90625 V 447 q 19.53125,0 19.53125,15.625 v 23.4375 q 0,15.625 -19.53125,15.625 h -15.625 v -11.71875 h 15.625 q 3.90625,0 3.90625,-3.90625 z m -27.34375,23.4375 q 0,3.90625 3.90625,3.90625 v 11.71875 q -19.53125,0 -19.53125,-15.625 V 462.625 q 0,-15.625 19.53125,-15.625 h 15.625 v 11.71875 h -15.625 q -3.90625,0 -3.90625,3.90625 z m 66.40625,15.625 h -15.625 V 462.625 h 15.625 z m 23.4375,-42.96875 h -39.0625 V 447 h 39.0625 q 19.53125,0 19.53125,15.625 v 3.90625 q 0,12.53906 -12.57812,15 l 12.57812,20.15625 h -19.53125 l -19.53125,-31.25 h 19.53125 q 3.90625,0 3.90625,-3.90625 V 462.625 q 0,-3.90625 -3.90625,-3.90625 z M 388.38281,447 h 39.0625 v 11.71875 h -39.0625 q -3.90625,0 -3.90625,3.90625 v 23.4375 q 0,3.90625 3.90625,3.90625 h 19.53125 v 11.71875 h -19.53125 q -19.53125,0 -19.53125,-15.625 V 462.625 q 0,-15.625 19.53125,-15.625 z m 39.0625,54.6875 h -15.625 v -19.53125 h -11.71875 l -7.8125,-11.71875 h 35.15625 z m 62.5,-42.96875 h -54.6875 V 447 h 54.6875 z m -54.6875,3.90625 h 15.625 v 27.34375 h 39.0625 v 11.71875 h -54.6875 z m 54.6875,19.53125 h -27.34375 l -7.8125,-11.71875 h 35.15625 z"
     id="text1-8"
     style="-inkscape-font-specification:'Revamped, Normal';stroke:#ffeea3;stroke-width:0;stroke-linecap:round;stroke-linejoin:round"
     inkscape:label="text1-8"
     aria-label="fitforge" />
  <path
     id="path51"
     style="fill:#f56e0f;stroke:#000000;stroke-width:0;stroke-linecap:round;stroke-linejoin:round;stroke-dasharray:none;stroke-opacity:1;paint-order:stroke markers fill"
     d="m 252.9327,58.388949 c -27.82776,0.524135 -55.4879,10.127839 -76.42874,27.271887 -18.72631,15.230164 -31.96695,36.429934 -35.96728,59.341214 -1.13166,6.50142 -1.7126,13.11967 -1.37042,19.70121 0.59847,3.08213 2.56004,6.29785 5.99971,7.19067 3.34419,1.1321 6.94803,0.45501 10.41513,0.63607 12.67927,-0.0226 25.3644,0.0452 38.04003,-0.0339 3.33405,-0.48859 6.91477,-2.18217 8.00746,-5.36697 1.06277,-2.34555 0.82031,-5.21017 0.75264,-7.62854 -0.15815,-5.39738 0.62039,-10.83327 2.58727,-15.92634 3.9067,-10.50877 12.22046,-19.43148 22.65977,-24.79168 11.15,-5.77552 24.43018,-7.79118 37.00299,-5.86914 0.92648,0.13806 2.32516,0.3726 3.42591,0.61032 13.3134,2.73507 25.65746,10.21747 32.86942,21.09105 4.90546,7.22739 7.43498,15.79333 7.25717,24.33661 -0.0137,3.06244 -0.37986,6.32613 1.31456,9.1052 1.11813,2.22835 3.46315,3.70634 5.9656,4.17155 3.12902,0.6413 6.35116,0.14686 9.52214,0.30185 12.93471,-0.0226 25.87526,0.0452 38.80629,-0.0338 3.44262,-0.48714 7.10189,-2.31144 8.1138,-5.63141 1.13712,-2.88979 0.58509,-5.94367 0.62558,-8.89654 -0.75098,-21.73559 -9.54894,-43.10152 -24.43314,-59.85198 C 331.29773,79.020186 307.19567,65.757582 281.24933,60.805122 271.95022,58.99408 262.42947,58.207223 252.9327,58.389065 Z" />
  <g
     inkscape:groupmode="layer"
     id="layer3"
     inkscape:label="Layer 1" />
  <g
     inkscape:groupmode="layer"
     id="g64"
     inkscape:label="Layer 1"
     style="display:inline"
     transform="matrix(0.77600519,0,0,0.48912776,28.080477,158.71882)" />
</svg>
